<?xml version="1.0" standalone="no"?>
<!DOCTYPE svg PUBLIC "-//W3C//DTD SVG 20010904//EN"
 "http://www.w3.org/TR/2001/REC-SVG-20010904/DTD/svg10.dtd">
<svg version="1.0" xmlns="http://www.w3.org/2000/svg"
 width="1200.000000pt" height="675.000000pt" viewBox="0 0 1200.000000 675.000000"
 preserveAspectRatio="xMidYMid meet">

<g transform="translate(0.000000,675.000000) scale(0.100000,-0.100000)"
fill="#000000" stroke="none">
<path d="M6764 6720 c316 -118 546 -379 626 -712 11 -46 20 -113 20 -150 l0
-68 -248 0 -248 0 -11 -70 c-15 -94 -61 -188 -125 -256 -85 -91 -180 -140
-293 -152 l-60 -7 -3 -247 -2 -248 177 0 178 -1 -65 -32 c-170 -84 -280 -258
-280 -442 0 -140 46 -250 145 -351 95 -97 209 -144 345 -144 276 0 492 215
492 490 0 197 -106 365 -282 449 l-55 26 168 3 167 2 0 490 0 490 120 0 120 0
0 480 0 480 -482 0 -483 -1 79 -29z m351 -1984 c97 -48 163 -114 211 -212 33
-66 38 -87 42 -164 7 -149 -41 -267 -149 -364 -251 -225 -648 -100 -734 231
-58 224 75 459 303 534 44 15 78 18 154 16 89 -4 105 -7 173 -41z"/>
<path d="M6805 4587 c-214 -102 -217 -398 -5 -509 62 -32 186 -33 245 -1 94
50 154 147 155 247 0 78 -15 124 -59 181 -51 68 -116 99 -211 103 -62 2 -83
-1 -125 -21z m95 -72 c0 -54 -1 -55 -46 -89 l-47 -33 -48 15 c-27 9 -49 22
-49 29 0 24 65 86 115 109 72 34 75 33 75 -31z m130 30 c41 -21 121 -109 109
-119 -2 -2 -26 -10 -52 -19 l-48 -16 -50 35 c-48 36 -49 36 -49 91 l0 55 33
-7 c17 -4 43 -13 57 -20z m-65 -155 l43 -30 -16 -50 -16 -50 -53 0 c-49 0 -54
2 -64 28 -24 62 -21 75 18 104 21 14 39 27 41 27 2 1 23 -12 47 -29z m-196
-33 c16 -8 30 -29 42 -64 l17 -52 -29 -41 c-16 -22 -34 -40 -39 -40 -16 0 -57
71 -70 118 -6 24 -8 57 -5 74 6 26 10 29 33 23 15 -4 38 -12 51 -18z m391 -18
c0 -59 -18 -113 -51 -151 l-28 -33 -25 30 c-36 42 -40 64 -19 119 15 40 25 51
53 61 63 23 70 20 70 -26z m-147 -168 c15 -22 27 -41 27 -44 0 -2 -15 -11 -32
-18 -42 -17 -134 -17 -176 2 l-33 14 31 43 c31 42 32 42 93 42 61 0 63 -1 90
-39z"/>
<path d="M8150 6270 l0 -480 290 0 290 0 0 480 0 480 -290 0 -290 0 0 -480z"/>
<path d="M9062 6273 l3 -478 570 0 c314 0 607 1 653 3 l82 4 0 153 0 154 315
0 315 0 2 -317 3 -317 323 -3 322 -2 0 -325 0 -325 -640 0 -640 0 0 -90 0 -90
324 0 324 0 21 28 20 27 31 -30 30 -31 -30 -29 -30 -29 -28 27 -28 27 -315 -2
-314 -3 -3 -787 -2 -788 322 0 c317 0 322 0 345 22 l23 22 30 -29 30 -29 -27
-28 -27 -28 -26 25 -26 25 -322 0 -323 0 3 -87 3 -88 492 -5 492 -5 -2 -188
c-2 -155 -5 -189 -17 -197 -13 -8 -13 -10 2 -10 15 0 17 -12 17 -103 0 -56 0
-112 0 -124 l1 -23 320 0 320 0 0 415 0 415 -148 0 c-136 0 -150 -2 -167 -20
-24 -26 -37 -25 -65 5 l-23 25 23 25 c28 30 46 32 62 5 12 -19 24 -20 165 -20
l153 0 0 289 0 289 -39 -5 c-47 -6 -94 3 -86 17 3 6 16 10 28 10 12 0 39 5 60
11 37 10 37 10 37 64 0 33 -5 55 -12 58 -10 4 -10 8 0 15 8 5 12 17 10 26 -2
12 -40 -20 -126 -107 -121 -122 -123 -124 -138 -190 -9 -36 -25 -78 -36 -93
-23 -28 -90 -63 -123 -64 -70 0 -150 52 -186 121 -21 42 -18 40 -374 240
l-220 124 -87 5 c-107 7 -141 27 -146 83 -3 33 0 38 37 57 39 19 41 23 41 65
0 35 5 48 23 59 37 25 380 166 402 166 11 0 -63 -39 -165 -86 -102 -47 -195
-90 -207 -96 -35 -17 -29 -51 17 -91 36 -30 258 -138 527 -256 161 -70 262
-89 379 -71 109 17 163 49 280 167 l104 105 0 88 0 88 -62 21 c-35 11 -83 25
-108 31 -104 26 -122 32 -117 36 6 7 164 -22 231 -42 27 -8 51 -14 53 -14 2 0
3 104 3 230 l0 230 -147 0 c-145 0 -147 0 -174 -26 l-28 -27 -24 29 -25 28 21
28 c25 34 28 34 57 3 23 -24 27 -25 172 -25 l148 0 0 1055 0 1055 -1470 0
-1470 0 2 -477z m934 141 l127 -125 -124 -125 c-68 -68 -128 -124 -134 -124
-13 0 -245 233 -245 246 0 7 240 254 246 254 1 0 60 -57 130 -126z m1422
-1841 l-62 -63 -58 57 c-32 32 -58 62 -58 67 0 6 26 36 57 68 l57 58 63 -62
63 -62 -62 -63z m-278 -406 c-43 -25 -55 -38 -55 -57 0 -32 39 -54 184 -103
143 -48 214 -56 276 -33 48 19 110 70 101 84 -3 5 -62 31 -131 57 -69 26 -125
52 -125 56 0 5 1 9 3 9 10 0 246 -82 265 -92 59 -31 26 -95 -76 -145 -48 -23
-61 -25 -135 -20 -92 6 -206 43 -321 105 -85 45 -98 62 -71 93 25 28 105 79
125 79 8 0 -10 -15 -40 -33z m-350 -412 c0 -3 -16 -19 -35 -36 -19 -17 -38
-41 -41 -54 -16 -64 71 -127 186 -133 62 -4 84 1 183 43 10 4 17 3 17 -4 0
-16 -94 -61 -144 -67 -58 -8 -172 12 -214 38 -38 24 -62 65 -62 109 0 23 10
41 39 70 33 33 71 51 71 34z m635 -655 l60 -60 -63 -63 -62 -62 -62 62 -63 63
60 60 c33 33 62 60 65 60 3 0 32 -27 65 -60z"/>
<path d="M11327 4662 l-27 -28 28 -27 28 -27 27 28 27 28 -28 27 -28 27 -27
-28z"/>
<path d="M11330 3065 l-24 -26 27 -27 27 -27 27 27 27 27 -24 26 c-13 14 -26
25 -30 25 -4 0 -17 -11 -30 -25z"/>
<path d="M7821 6366 l-74 -74 74 -71 c41 -39 76 -71 79 -71 3 0 37 32 75 70
l70 70 -75 75 -75 75 -74 -74z"/>
<path d="M6420 6030 l0 -240 240 0 240 0 0 43 c0 24 -9 71 -21 105 -57 169
-194 290 -364 321 -105 20 -95 44 -95 -229z"/>
<path d="M10010 5338 l0 -442 -40 -41 -40 -41 45 -44 45 -44 47 47 47 47 -42
43 -42 43 0 437 c0 285 -3 437 -10 437 -7 0 -10 -154 -10 -442z"/>
<path d="M7730 5333 l0 -437 -40 -41 -40 -41 45 -44 45 -44 45 44 45 44 -40
41 -40 41 0 437 c0 285 -3 437 -10 437 -7 0 -10 -152 -10 -437z"/>
<path d="M9645 5509 c-11 -16 -1 -19 13 -3 7 8 8 14 3 14 -5 0 -13 -5 -16 -11z"/>
<path d="M8128 5495 c-2 -3 -3 -389 -1 -857 4 -960 3 -936 78 -1094 74 -154
238 -306 393 -364 139 -53 328 -67 459 -34 286 70 517 315 562 594 7 42 11
368 11 913 l0 847 -748 0 c-412 0 -751 -2 -754 -5z m1412 -453 l0 -368 -65
-52 c-35 -29 -69 -52 -75 -52 -6 0 -47 32 -91 71 -92 80 -72 82 -191 -17 l-74
-62 -84 74 c-47 40 -89 73 -93 74 -5 0 -46 -31 -91 -70 -46 -38 -87 -70 -91
-70 -4 0 -44 32 -88 70 -44 39 -83 70 -86 70 -4 0 -45 -33 -92 -74 l-85 -73
-24 19 c-14 11 -42 35 -62 54 l-38 35 0 369 0 370 665 0 665 0 0 -368z m-940
-462 c93 -80 80 -81 185 9 39 34 74 61 79 61 5 0 46 -31 91 -70 45 -38 86 -70
89 -70 4 0 45 32 91 70 46 39 87 70 90 70 3 0 42 -31 86 -70 43 -38 83 -70 87
-70 4 0 35 23 69 50 34 28 64 50 67 50 3 0 6 -181 6 -402 0 -449 -5 -490 -64
-613 -55 -113 -56 -114 -94 -61 -31 43 -127 123 -185 153 -80 41 -219 73 -317
73 -191 -1 -383 -93 -485 -232 l-44 -60 -36 56 c-49 76 -81 166 -94 260 -12
81 -16 816 -5 816 4 0 32 -22 63 -49 l56 -49 83 74 c45 41 87 74 92 74 5 0 45
-32 90 -70z m418 -890 c35 -22 42 -40 15 -40 -10 0 -48 -11 -85 -23 -57 -20
-71 -21 -90 -11 -13 7 -47 19 -75 25 -29 7 -53 18 -53 24 0 45 223 64 288 25z
m-344 -23 c-2 -7 -29 -25 -58 -39 -29 -15 -79 -47 -111 -73 -31 -26 -58 -45
-61 -43 -9 10 98 101 156 133 72 38 82 41 74 22z m522 -34 c51 -27 161 -126
145 -131 -6 -2 -35 17 -64 42 -29 24 -79 60 -112 78 -32 18 -60 39 -62 45 -5
14 18 6 93 -34z m-378 -48 l42 -17 -1 -97 0 -96 -76 -50 c-42 -27 -86 -56 -98
-64 -20 -13 -29 -11 -96 21 -41 19 -85 44 -97 54 -23 19 -23 22 -13 79 13 70
41 103 136 160 53 32 66 36 110 32 28 -3 69 -13 93 -22z m338 -10 c32 -20 76
-53 97 -75 33 -35 37 -45 37 -92 0 -53 0 -54 -50 -86 -27 -18 -70 -41 -95 -52
l-45 -19 -63 47 c-34 26 -77 54 -95 61 l-32 13 0 93 c0 62 4 96 13 103 15 13
113 40 148 41 14 1 52 -15 85 -34z m-720 -141 c-3 -9 -6 -23 -6 -32 0 -13 -4
-12 -22 6 -20 19 -21 24 -8 32 24 15 43 12 36 -6z m923 7 c12 -8 12 -12 -2
-26 -10 -9 -17 -12 -17 -7 0 6 -3 17 -6 26 -7 18 4 20 25 7z m-392 -150 c33
-21 63 -43 67 -49 9 -15 -46 -22 -163 -21 -152 1 -158 5 -75 62 37 26 78 47
89 47 12 0 49 -18 82 -39z"/>
<path d="M8372 5270 c-31 -30 -34 -48 -30 -239 l3 -172 33 -27 c19 -16 32 -36
32 -50 0 -20 4 -23 33 -20 25 2 32 8 32 24 0 12 15 35 33 52 l32 30 0 185 c0
171 -1 186 -21 211 -17 22 -28 26 -73 26 -39 0 -58 -5 -74 -20z m93 -215 l0
-170 -25 0 -25 0 -3 159 c-3 163 3 190 37 184 14 -3 16 -26 16 -173z"/>
<path d="M8645 5278 c-6 -19 -85 -430 -85 -445 0 -8 13 -13 35 -13 30 0 35 3
35 23 0 55 11 68 49 65 27 -2 37 -8 39 -23 9 -62 11 -65 48 -65 29 0 34 3 30
18 -3 9 -19 91 -36 182 -55 295 -47 270 -81 270 -16 0 -32 -6 -34 -12z m50
-262 c7 -41 5 -46 -12 -46 -29 0 -30 5 -20 72 11 67 19 60 32 -26z"/>
<path d="M8770 5255 c0 -33 2 -35 35 -35 l35 0 0 -200 0 -200 35 0 35 0 0 200
0 200 29 0 c23 0 30 6 35 25 4 14 4 30 1 35 -4 6 -51 10 -106 10 l-99 0 0 -35z"/>
<path d="M9035 5278 c-3 -12 -66 -338 -81 -420 -6 -38 -6 -38 29 -38 34 0 35
1 42 46 6 45 7 45 43 42 34 -3 37 -6 45 -45 8 -41 10 -43 43 -43 19 0 34 1 34
3 0 2 -11 59 -24 128 -14 68 -32 165 -41 214 -22 126 -22 125 -56 125 -16 0
-31 -6 -34 -12z m50 -251 c7 -58 7 -59 -16 -55 -13 1 -23 5 -23 8 1 3 5 31 9
63 9 70 21 63 30 -16z"/>
<path d="M9210 5055 l0 -235 35 0 35 0 0 97 c0 53 3 94 6 90 3 -3 16 -45 28
-94 l22 -88 37 -3 c22 -2 37 1 37 8 0 5 -12 53 -26 106 -27 95 -27 95 -7 109
32 22 46 69 41 136 -4 52 -9 66 -32 86 -23 20 -38 23 -102 23 l-74 0 0 -235z
m134 149 c9 -24 7 -73 -4 -95 -6 -11 -21 -19 -35 -19 -24 0 -25 3 -25 65 l0
65 29 0 c17 0 31 -6 35 -16z"/>
<path d="M8404 4446 c-39 -17 -74 -61 -74 -92 0 -21 5 -24 37 -24 28 0 42 6
59 27 24 31 48 27 65 -11 10 -21 1 -46 -75 -203 -67 -138 -86 -188 -86 -221
l0 -43 123 3 122 3 0 35 0 35 -78 3 c-57 2 -77 6 -74 15 3 7 40 84 81 172 48
101 76 172 76 193 0 38 -23 83 -51 100 -30 19 -92 23 -125 8z"/>
<path d="M8681 4443 c-55 -28 -61 -56 -61 -284 0 -170 3 -205 17 -229 22 -38
57 -55 109 -55 52 0 94 29 111 76 15 42 17 369 3 420 -21 75 -106 110 -179 72z
m87 -75 c8 -8 12 -68 12 -203 0 -198 -3 -215 -42 -215 -30 0 -38 43 -38 215 0
90 4 175 10 189 10 28 38 34 58 14z"/>
<path d="M8975 4446 c-40 -18 -63 -45 -71 -84 l-6 -32 46 0 c32 0 46 4 46 14
0 21 27 38 49 31 45 -14 37 -47 -53 -234 -64 -135 -86 -190 -86 -220 l0 -41
125 0 125 0 0 40 0 40 -80 0 c-44 0 -80 2 -80 3 0 2 36 79 80 170 54 113 80
178 80 202 0 95 -87 150 -175 111z"/>
<path d="M9243 4446 c-35 -16 -58 -46 -68 -88 -7 -27 -6 -28 39 -28 35 0 46 4
46 15 0 9 11 20 25 27 30 14 55 -3 55 -38 0 -12 -38 -103 -85 -201 -60 -125
-85 -189 -85 -215 l0 -38 125 0 125 0 0 40 0 40 -75 0 c-42 0 -75 4 -75 10 0
5 34 80 75 166 88 184 96 230 47 285 -33 37 -98 48 -149 25z"/>
<path d="M9640 5470 c0 -6 7 -10 15 -10 8 0 15 2 15 4 0 2 -7 6 -15 10 -8 3
-15 1 -15 -4z"/>
<path d="M9640 5389 c0 -5 5 -7 10 -4 6 3 10 8 10 11 0 2 -4 4 -10 4 -5 0 -10
-5 -10 -11z"/>
<path d="M9640 5349 c0 -5 5 -7 10 -4 6 3 10 8 10 11 0 2 -4 4 -10 4 -5 0 -10
-5 -10 -11z"/>
<path d="M9922 4428 l-103 -102 98 -98 c54 -54 102 -98 107 -98 5 0 54 44 108
98 l99 97 -103 102 -103 102 -103 -101z m156 -145 c-23 -24 -47 -43 -52 -43
-6 0 -30 19 -53 42 l-43 42 47 48 47 48 48 -47 48 -47 -42 -43z"/>
<path d="M7637 4422 l-97 -97 103 -103 102 -102 98 98 c53 53 97 102 97 108 0
11 -187 194 -198 194 -4 0 -51 -44 -105 -98z m155 -49 c21 -20 38 -42 38 -47
0 -6 -19 -30 -42 -53 l-42 -43 -48 47 -48 47 42 43 c23 24 47 43 52 43 6 0 27
-17 48 -37z"/>
<path d="M9660 4510 c0 -5 5 -10 10 -10 6 0 10 5 10 10 0 6 -4 10 -10 10 -5 0
-10 -4 -10 -10z"/>
<path d="M9640 4401 c0 -5 5 -13 10 -16 6 -3 10 -2 10 4 0 5 -4 13 -10 16 -5
3 -10 2 -10 -4z"/>
<path d="M9645 4110 c3 -5 8 -10 11 -10 2 0 4 5 4 10 0 6 -5 10 -11 10 -5 0
-7 -4 -4 -10z"/>
<path d="M9660 4081 c0 -5 5 -13 10 -16 6 -3 10 -2 10 4 0 5 -4 13 -10 16 -5
3 -10 2 -10 -4z"/>
<path d="M10613 3968 c-35 -46 -14 -68 66 -68 67 0 119 -23 386 -172 248 -137
322 -167 460 -182 105 -12 177 30 378 220 74 71 97 98 97 118 0 14 -4 26 -10
26 -5 0 -32 -28 -60 -62 -66 -80 -131 -134 -200 -166 -43 -20 -75 -26 -155
-30 -170 -8 -259 22 -639 210 -242 119 -298 138 -323 106z"/>
<path d="M7692 3877 l-42 -43 40 -39 40 -39 0 -453 0 -453 -92 -1 c-104 -2
-184 -5 -210 -7 -17 -2 -18 -33 -18 -492 l0 -490 -47 0 c-41 -1 -600 -6 -845
-9 l-78 -1 0 -480 0 -480 485 0 485 0 0 485 0 485 160 0 160 0 0 485 c0 379 3
487 13 490 9 4 11 103 9 457 l-3 452 43 43 42 43 -44 45 c-24 25 -47 45 -50
45 -3 0 -25 -19 -48 -43z m-322 -2488 c0 -375 -2 -420 -15 -415 -9 3 -73 43
-143 89 -70 45 -164 107 -209 136 l-83 54 0 148 0 149 160 0 160 0 -23 38
c-13 20 -26 42 -30 48 -3 6 7 32 23 58 l30 46 -160 0 c-95 0 -161 4 -165 10
-3 6 -13 10 -21 10 -12 0 -14 -39 -14 -252 l0 -253 -195 -128 c-107 -70 -197
-127 -200 -127 -3 0 -5 182 -5 405 l0 405 445 0 445 0 0 -421z m-418 -203 l51
-35 -34 -20 c-19 -12 -51 -21 -72 -21 -39 0 -97 23 -97 39 0 7 88 70 98 71 1
0 26 -15 54 -34z m-167 -76 c25 -27 80 -43 131 -37 38 4 59 14 108 51 8 5 68
-28 166 -93 l155 -101 -315 0 c-173 0 -367 -1 -430 -2 -83 -1 -115 1 -115 10
0 11 261 192 276 192 3 0 14 -9 24 -20z"/>
<path d="M9972 3877 l-42 -43 40 -39 40 -39 0 -453 0 -453 -970 0 -970 0 0
-495 0 -495 165 0 165 0 0 -477 0 -478 225 225 c123 124 225 228 225 231 0 4
-17 27 -38 52 -93 113 -152 286 -152 446 0 208 67 369 215 516 148 149 305
215 509 215 108 0 195 -17 279 -52 63 -27 152 -81 190 -116 l28 -26 227 227
227 227 -148 0 -147 0 -1 373 c0 204 -2 407 -4 450 -3 69 -1 81 18 100 12 13
31 33 41 45 l20 23 -39 39 c-22 22 -44 40 -50 40 -6 0 -30 -19 -53 -43z"/>
<path d="M9650 3765 c-8 -9 -8 -15 -2 -15 12 0 26 19 19 26 -2 2 -10 -2 -17
-11z"/>
<path d="M9651 3704 c0 -11 3 -14 6 -6 3 7 2 16 -1 19 -3 4 -6 -2 -5 -13z"/>
<path d="M9630 3654 c0 -8 5 -12 10 -9 6 4 8 11 5 16 -9 14 -15 11 -15 -7z"/>
<path d="M11660 3523 c-27 -12 -59 -14 -143 -10 -59 2 -110 1 -112 -4 -3 -4 8
-23 25 -42 21 -25 45 -39 78 -47 95 -22 202 26 202 92 0 32 -2 32 -50 11z"/>
<path d="M9525 3430 c3 -5 8 -10 11 -10 2 0 4 5 4 10 0 6 -5 10 -11 10 -5 0
-7 -4 -4 -10z"/>
<path d="M9439 3313 c-13 -16 -12 -17 4 -4 9 7 17 15 17 17 0 8 -8 3 -21 -13z"/>
<path d="M9260 3211 c0 -5 9 -7 20 -4 11 3 20 7 20 9 0 2 -9 4 -20 4 -11 0
-20 -4 -20 -9z"/>
<path d="M9090 3120 c-20 -6 -21 -8 -5 -8 11 0 29 3 40 8 25 11 -1 11 -35 0z"/>
<path d="M10140 2585 l-224 -224 26 -28 c49 -52 105 -151 133 -234 37 -111 46
-290 20 -401 -62 -264 -269 -474 -535 -545 -86 -23 -262 -23 -350 1 -85 22
-192 73 -260 125 -30 22 -57 41 -60 41 -3 0 -102 -97 -220 -215 l-215 -215
1028 2 c565 2 1027 1 1027 -2 0 -3 -32 -27 -70 -53 l-70 -48 0 -235 c0 -129 2
-234 5 -234 2 0 98 66 212 146 114 81 297 209 405 286 l197 138 302 1 c166 0
303 -2 305 -3 2 -2 -102 -109 -231 -238 l-235 -235 0 208 0 208 -89 -63 c-50
-35 -246 -173 -437 -308 -191 -135 -367 -258 -390 -275 l-43 -30 -1 -77 0 -78
228 0 228 0 249 176 c196 137 251 181 253 200 2 13 6 24 10 24 4 0 97 -90 207
-200 l200 -200 70 0 71 0 57 58 57 58 0 300 0 301 -86 82 c-47 46 -83 85 -80
88 2 2 41 5 85 5 l81 1 0 309 0 308 -122 -87 c-68 -48 -265 -188 -438 -310
l-315 -223 -227 0 c-126 0 -228 1 -228 3 0 1 38 29 85 62 47 33 146 103 219
155 73 52 334 237 579 410 362 255 447 319 447 338 l0 22 -320 0 c-195 0 -320
4 -320 9 0 6 -12 6 -30 0 -32 -12 -188 -8 -208 5 -7 4 -12 2 -12 -3 0 -6 -12
-11 -26 -11 -14 0 -23 4 -19 10 3 6 -1 10 -10 10 -9 0 -13 -4 -10 -10 4 -7
-58 -10 -178 -10 l-185 0 -147 -105 c-81 -58 -151 -105 -154 -105 -4 0 -5 256
-4 570 2 314 0 570 -4 570 -5 0 -109 -101 -233 -225z"/>
<path d="M10938 2633 c7 -3 16 -2 19 1 4 3 -2 6 -13 5 -11 0 -14 -3 -6 -6z"/>
<path d="M11131 2584 c0 -11 3 -14 6 -6 3 7 2 16 -1 19 -3 4 -6 -2 -5 -13z"/>
<path d="M10790 2539 c-43 -17 -90 -71 -104 -120 -40 -132 58 -249 199 -237
63 5 118 42 144 96 9 17 23 32 31 32 11 0 11 3 2 12 -7 7 -12 30 -12 51 0 53
-25 101 -73 142 -37 32 -46 35 -101 34 -34 0 -72 -5 -86 -10z"/>
<path d="M9251 2529 c-228 -45 -435 -229 -507 -453 -34 -105 -42 -250 -20
-355 18 -84 79 -216 129 -278 l34 -42 216 217 c177 177 217 222 217 245 0 35
32 67 68 67 22 0 66 39 242 216 l215 215 -40 34 c-59 51 -163 103 -251 125
-82 21 -221 25 -303 9z"/>
<path d="M11125 2320 c3 -5 8 -10 11 -10 2 0 4 5 4 10 0 6 -5 10 -11 10 -5 0
-7 -4 -4 -10z"/>
<path d="M9662 2107 c-184 -184 -212 -216 -212 -243 0 -37 -27 -64 -63 -64
-22 0 -68 -42 -241 -217 l-215 -218 22 -23 c12 -13 51 -41 87 -63 267 -159
596 -118 819 101 128 125 190 264 198 443 6 125 -6 201 -49 305 -29 69 -109
192 -126 192 -4 0 -103 -96 -220 -213z"/>
<path d="M11325 2270 c3 -5 8 -10 11 -10 2 0 4 5 4 10 0 6 -5 10 -11 10 -5 0
-7 -4 -4 -10z"/>
<path d="M10917 2152 c-19 -20 -22 -32 -9 -32 5 0 14 11 20 25 14 30 11 31
-11 7z"/>
<path d="M11320 2056 c0 -2 9 -6 20 -9 11 -3 20 -1 20 4 0 5 -9 9 -20 9 -11 0
-20 -2 -20 -4z"/>
<path d="M11346 2005 c-3 -8 -1 -15 4 -15 6 0 10 7 10 15 0 8 -2 15 -4 15 -2
0 -6 -7 -10 -15z"/>
<path d="M11340 1959 c0 -5 5 -7 10 -4 6 3 10 8 10 11 0 2 -4 4 -10 4 -5 0
-10 -5 -10 -11z"/>
<path d="M7863 1599 c-57 -10 -96 -32 -131 -74 -48 -59 -64 -137 -41 -206 50
-149 232 -202 349 -101 171 146 44 419 -177 381z"/>
<path d="M7590 355 l0 -355 248 0 248 0 12 33 c17 48 77 114 139 154 105 67
235 79 356 33 70 -27 163 -109 195 -174 l23 -46 245 0 244 0 0 355 0 355 -855
0 -855 0 0 -355z"/>
<path d="M11193 101 c-67 -47 -125 -90 -129 -94 -4 -4 54 -7 129 -7 l137 0 0
95 c0 52 -3 95 -7 94 -5 0 -63 -40 -130 -88z"/>
</g>
</svg>
